<svg xmlns="http://www.w3.org/2000/svg" width="512" height="512" viewBox="0 0 512 512">
  <defs>
    <linearGradient id="bg" x1="0" y1="0" x2="1" y2="1">
      <stop offset="0" stop-color="#0a2a52"/>
      <stop offset="0.52" stop-color="#0e7e90"/>
      <stop offset="1" stop-color="#17c0d4"/>
    </linearGradient>
    <radialGradient id="glow" cx="0.32" cy="0.26" r="0.9">
      <stop offset="0" stop-color="#ffffff" stop-opacity="0.28"/>
      <stop offset="0.45" stop-color="#ffffff" stop-opacity="0.05"/>
      <stop offset="1" stop-color="#ffffff" stop-opacity="0"/>
    </radialGradient>
    <linearGradient id="mark" x1="0.5" y1="0" x2="0.5" y2="1">
      <stop offset="0" stop-color="#ffffff"/>
      <stop offset="1" stop-color="#dff4f8"/>
    </linearGradient>
    <filter id="lift" x="-25%" y="-25%" width="150%" height="150%">
      <feDropShadow dx="0" dy="6" stdDeviation="9" flood-color="#04111f" flood-opacity="0.32"/>
    </filter>
  </defs>
  <rect width="512" height="512" rx="115" ry="115" fill="url(#bg)"/>
  <rect width="512" height="512" rx="115" ry="115" fill="url(#glow)"/>
  <g transform="translate(25.599999999999994 25.599999999999994) scale(0.9)" filter="url(#lift)">
    <path d="M256 96 C266 96 274 98 281 104 C286 116 288 128 289 142 C317 148 347 158 375 176 C395 188 407 203 408 226 C409 250 400 272 383 296 C357 344 320 398 286 430 C278 437 268 441 256 442 C244 441 234 437 226 430 C192 398 155 344 129 296 C112 272 103 250 104 226 C105 203 117 188 137 176 C165 158 195 148 223 142 C224 128 226 116 231 104 C238 98 246 96 256 96 Z" fill="url(#mark)"/>
    <path d="M256 190 C248 208 245 234 245 276 C245 322 248 360 251 396 L256 404 L261 396 C264 360 267 322 267 276 C267 234 264 208 256 190 Z" fill="#0a2a52" fill-opacity="0.9"/>
  </g>
</svg>